<svg xmlns="http://www.w3.org/2000/svg" width="30.72" height="30.72" viewBox="0 0 320 320" shape-rendering="geometricPrecision" text-rendering="geometricPrecision" image-rendering="optimizeQuality" fill-rule="evenodd" clip-rule="evenodd"><path d="M219 83c0 3-3 6-6 6h-16c-4 0-7-3-7-6V67c0-4 3-7 7-7h16c3 0 6 3 6 7v16zm0 42c0 3-3 6-6 6h-16c-4 0-7-3-7-6v-17c0-3 3-6 7-6h16c3 0 6 3 6 6v17zm0 41c0 4-3 7-6 7h-16c-4 0-7-3-7-7v-16c0-3 3-6 7-6h16c3 0 6 3 6 6v16zm0 42c0 4-3 7-6 7h-16c-4 0-7-3-7-7v-16c0-4 3-6 7-6h16c3 0 6 2 6 6v16zM178 83c0 3-3 6-7 6h-16c-4 0-6-3-6-6V67c0-4 2-7 6-7h16c4 0 7 3 7 7v16zm0 42c0 3-3 6-7 6h-16c-4 0-6-3-6-6v-17c0-3 2-6 6-6h16c4 0 7 3 7 6v17zm0 41c0 4-3 7-7 7h-16c-4 0-6-3-6-7v-16c0-3 2-6 6-6h16c4 0 7 3 7 6v16zm0 42c0 4-3 7-7 7h-16c-4 0-6-3-6-7v-16c0-4 2-6 6-6h16c4 0 7 2 7 6v16zM136 83c0 3-3 6-7 6h-16c-3 0-6-3-6-6V67c0-4 3-7 6-7h16c4 0 7 3 7 7v16zm0 42c0 3-3 6-7 6h-16c-3 0-6-3-6-6v-17c0-3 3-6 6-6h16c4 0 7 3 7 6v17zm0 41c0 4-3 7-7 7h-16c-3 0-6-3-6-7v-16c0-3 3-6 6-6h16c4 0 7 3 7 6v16zm0 42c0 4-3 7-7 7h-16c-3 0-6-3-6-7v-16c0-4 3-6 6-6h16c4 0 7 2 7 6v16zM246 57c9 0 16-7 16-16v-2c0-9-7-17-16-17H81c-10 0-17 8-17 17v2c0 9 7 16 16 16h1v160h-1c-9 0-16 8-16 17v2c0 9 7 16 16 16h1v40h59v-41c0-7 6-13 13-13h20c7 0 13 6 13 13v41h59v-40h1c9 0 16-7 16-16v-2c0-12-10-17-16-17h-1V57h1z" fill="#535156" fill-rule="nonzero"/></svg>