<svg xmlns="http://www.w3.org/2000/svg" width="30.72" height="30.72" viewBox="0 0 320 320" shape-rendering="geometricPrecision" text-rendering="geometricPrecision" image-rendering="optimizeQuality" fill-rule="evenodd" clip-rule="evenodd"><path d="M143 109s-44 13-61 58c-1 2-3 4-6 4-1 0-1 0-2-1-3-1-5-4-4-7 19-52 68-65 70-65 3-1 7 1 7 4 1 3-1 6-4 7zm-72 80c-3 0-6-3-6-7 0-3 3-6 6-6 4 0 7 3 7 6 0 4-3 7-7 7zM181 88c2-2 2-6 2-9 0-11-9-21-20-21-12 0-21 10-21 21 0 3 0 7 2 9-53 9-94 54-96 109h229c-2-55-43-100-96-109zm103 121H41c-10 0-18 8-18 18s8 18 18 18h243c10 0 18-8 18-18s-8-18-18-18z" fill="#535156" fill-rule="nonzero"/></svg>