<svg xmlns="http://www.w3.org/2000/svg" width="144" height="48" viewBox="0 0 1500 500" xmlns:xlink="http://www.w3.org/1999/xlink" shape-rendering="geometricPrecision" text-rendering="geometricPrecision" image-rendering="optimizeQuality" fill-rule="evenodd" clip-rule="evenodd"><defs><linearGradient id="a" gradientUnits="userSpaceOnUse" x1="58.61" y1="262.831" x2="1005.8" y2="247.264"><stop offset="0" stop-color="#ff5100"/><stop offset=".271" stop-color="#f5651b"/><stop offset=".569" stop-color="#fcc213"/><stop offset="1" stop-color="#eb7937"/></linearGradient><linearGradient id="b" gradientUnits="userSpaceOnUse" xlink:href="#a" x1="885.583" y1="220.874" x2="1473" y2="213.429"/></defs><g fill-rule="nonzero"><path d="M399 154c0 1-1 3-1 4-2 1-3 3-4 5l-6 6-6 6c-5 4-11 9-17 14-12 22-22 43-31 64-4 9-7 19-11 28-4 10-7 20-10 30-3 9-5 19-7 28s-3 18-3 25c0 10 1 19 3 26 1 7 3 12 6 17 3 4 6 7 10 9 3 2 7 4 11 4 5 0 9-1 13-3 4-1 7-3 9-5 3-2 5-4 5-6 2-2 2-3 2-4 0 0 0-1 1-1 0 0 1 0 1 1v1c0 1 1 1 1 3s-1 6-3 9-6 6-9 9c-4 3-9 5-15 7-6 1-13 2-20 2-8 0-14-1-21-4-6-3-12-7-16-12-6-5-10-10-14-16s-7-12-10-18-5-13-6-18c-2-6-2-11-2-16 0-4 1-11 4-20s6-18 10-29 9-22 15-34c5-13 11-25 17-38-21 25-39 47-56 67-6 8-13 17-20 24-7 8-14 16-19 22s-10 11-14 15c-3 4-6 6-6 6-3 0-6-1-10-2-4-2-8-4-11-6-4-3-7-6-10-9-2-3-3-7-3-11 0-3 1-10 5-18 3-8 7-17 12-28s11-23 18-36c6-14 13-26 20-40s14-28 21-41c6-14 12-27 17-38 5-12 10-22 12-32 4-10 5-18 5-23 0 0-3 1-6 4s-8 7-13 12c-4 4-10 10-16 17-6 6-12 14-18 21l-18 24c-5 7-11 15-15 24-4 7-8 15-11 22-2 7-4 14-4 20 0 2 0 4 1 6 0 1 1 2 1 3s1 2 2 3c-2 2-4 4-6 4-3 0-6-2-8-5s-5-7-6-12-3-10-4-16-2-13-2-18c-1-6-1-12-1-17-1-5-1-10-1-13 0-4 1-8 5-12 2-5 7-10 11-15 5-5 11-10 17-15 7-6 14-11 20-16 8-5 15-10 22-15 8-4 15-8 22-11 7-4 13-6 18-8s10-3 14-3c2 0 5 1 8 2 2 2 5 4 8 7 2 2 5 5 7 8s4 7 6 9c2 3 3 6 4 8s1 4 1 5c0 3-1 7-2 12-1 4-3 10-6 17s-6 14-9 22c-4 8-8 16-12 25-5 9-9 17-14 27-4 9-9 18-14 27-17 33-36 68-57 106 25-32 48-61 71-90 10-11 20-23 30-36 10-12 20-24 29-35 10-11 19-21 27-30 9-10 15-17 21-23 4-4 6-7 9-9s5-3 7-3c3 0 5 1 7 2 2 2 4 4 6 7s4 5 5 9c2 3 3 6 4 9 1 4 2 6 2 9s0 6 1 7zm-7 172h21c8 0 14 2 20 4s11 5 15 8c5 4 9 9 11 15v3c-1 0-2 1-2 2-2 0-3 1-4 2 0-3-1-4-3-6s-4-3-6-5c-3-1-6-2-9-2-3-1-5-1-7-1-8-1-16-1-24 1-8 0-15 1-22 2-7 2-13 2-18 4-6 1-10 1-13 1-1 0-2-1-3-2s-1-3-2-5v-4c-1-2-1-4-1-5 1-3 1-5 2-7 1 0 2-2 3-3 4-2 9-6 14-10s9-10 15-15c5-6 11-12 16-19 5-6 11-12 16-19 5-6 10-12 14-18 5-6 9-12 13-17 3-4 6-8 8-12 2-3 2-5 2-6-6 3-13 5-19 7l-9 3c-3 1-5 2-8 2-3 1-6 1-8 2h-6c-3 0-6-2-8-5-3-3-5-6-7-10l-3-12c-1-5-1-9-1-11s0-5 1-6l3-6c2-1 3-2 5-3 0 1 0 3 1 5 1 1 2 3 3 4 2 2 4 4 8 5 2 1 6 1 11 2 7 1 14 0 20-1 8-1 14-2 20-4 6-1 10-2 14-4 4 0 7-1 8-1 2 0 5 1 8 4 2 2 5 5 7 9 2 3 4 7 5 10 1 4 2 7 2 9 0 1-1 3-4 7s-7 10-13 16c-5 7-11 14-17 22-7 9-15 17-22 25-8 9-16 17-24 25s-15 15-23 20zm246-88c1 1 1 3 1 4 1 1 1 3 1 4 0 2-1 3-1 5-1 1-2 4-4 8-3 4-6 9-10 13-4 6-9 10-16 16-6 5-14 9-23 13-5 9-10 17-15 23-5 8-10 13-14 19-4 4-8 8-12 11-3 3-6 4-8 4s-5-1-7-2c-2-2-5-3-7-6s-4-5-6-9c-1-2-2-6-2-10 0-3 1-5 2-8 2-3 4-6 7-9 2-4 4-7 7-9 3-4 6-6 9-8 2-2 5-4 7-6 3-1 4-2 6-2 7-14 14-26 19-37 2-5 4-9 6-14s3-9 4-12c1-4 2-6 2-9-1-2-2-3-3-3s-3 2-7 6c-3 4-6 8-11 14-5 7-10 13-15 21-6 8-11 16-16 24-5 9-10 16-14 24-5 9-8 16-11 22-1 4-2 8-3 11s-1 5-1 6c0 3 0 6 1 8 1 1 1 3 1 4v2c-1 1-2 1-4 1s-5-1-8-2-7-4-10-7-6-6-9-10-3-8-3-13c0-2 0-5 2-11 2-5 4-12 7-20 2-7 6-16 9-26 4-10 8-20 12-31s8-22 13-33c4-12 9-23 13-34s8-22 11-32c4-11 8-19 11-28 2-9 4-16 6-22 2-7 2-11 2-15s0-6-2-8c-1-1-2-2-3-2s-2 0-2 1h-1v-3c1-1 2-2 2-3 1-1 2-2 4-2 1 0 3-1 6-1s7 1 11 3 8 5 12 8c3 3 7 6 9 9 2 4 4 7 4 9s-1 7-3 13-5 14-8 23c-4 10-7 20-12 30-4 12-9 24-13 36-6 13-10 25-16 38-5 12-9 25-14 36 3-6 7-12 11-18 5-6 9-13 13-18 4-7 8-13 13-18 4-5 7-10 10-14 4-5 6-8 8-10 3-3 5-4 6-4 3 0 5 1 9 3 2 2 5 5 7 9 3 4 5 8 6 13 2 4 2 10 2 14 0 5 0 9-1 14s-3 10-6 16c-2 6-4 12-6 17-3 6-6 12-8 17 4-3 8-5 12-7 3-3 7-6 9-10 4-3 7-7 10-11s6-10 11-16l1 1zm61-25c-2 0-4 1-7 4s-5 6-8 11c-3 4-6 9-10 15-2 6-6 12-8 19-3 7-6 14-8 20-3 7-5 14-7 20 3-1 7-4 11-8 3-3 7-8 11-13 3-5 8-11 11-16 3-6 7-12 9-18 3-6 6-11 7-17 2-4 3-9 3-13 0-3-1-4-4-4zm34 34c1-2 2-5 3-6 1-3 1-4 1-3 1 0 2 0 2 2 0 1 1 2 1 4v7c-1 2-1 5-3 8-2 5-5 10-9 17-3 6-8 13-13 21-5 7-11 15-16 22-6 7-12 14-17 20-6 5-11 10-16 13-4 4-9 6-13 6-6 0-11-2-16-4-5-3-9-7-13-11-4-5-6-10-8-15-2-6-4-11-4-16 0-9 2-18 4-28 3-10 7-20 11-30 5-9 10-19 15-28s11-17 17-24c5-8 11-13 15-17 6-4 10-6 13-6 4 0 8 1 12 3 5 2 10 5 14 8 5 4 8 7 12 11 2 3 4 6 4 9s-2 9-4 16c-3 6-6 13-11 21-4 7-9 14-15 23-6 7-11 14-17 21s-12 12-18 17-11 8-16 10c-1 1-1 2-1 4v4c0 5 1 7 3 9 3 2 5 3 8 3s7-1 11-5c4-3 9-8 14-13 4-6 10-12 14-19 6-6 11-13 15-20s8-13 13-19c3-7 6-11 8-15zm151-9s1 0 2 2c1 1 1 3 1 5s0 3-1 6c0 2-1 4-2 8-3 5-6 11-9 17-4 6-8 14-12 21s-8 15-13 21c-4 8-8 14-12 20-5 5-9 10-13 13-3 4-6 6-9 6-10 0-18-1-24-5-6-3-10-7-13-14-4-6-6-15-7-25s-1-22-1-36c-5 7-9 14-13 20-4 7-7 14-10 19-3 6-5 11-7 16-2 4-3 8-3 10 0 4 1 7 2 8s1 3 1 4 0 2-1 2c-1 1-1 2-3 2s-4-1-8-2c-4-2-7-5-10-7-3-4-7-7-9-10-2-4-4-9-4-13 0-2 2-6 3-12 2-5 4-12 7-19 2-8 6-17 9-27 4-9 8-19 12-30s8-23 13-34c4-12 8-22 13-33 4-12 8-23 12-33s6-19 10-27c2-9 4-17 6-23 2-7 3-11 3-15s-1-6-2-8c-2-1-3-2-4-2s-1 0-2 1l-1 1v-4c0-1 1-2 2-3 1 0 2-1 4-2h6c3 0 7 0 11 3 4 2 8 4 12 8 3 2 7 6 9 9s4 6 4 9c0 2-1 7-4 13-2 7-4 15-8 25s-8 21-13 32c-4 12-9 25-14 37-5 14-11 27-16 40s-10 25-15 37c12-17 22-32 33-45 4-6 8-11 12-17 4-5 9-10 13-15l10-10c3-2 6-4 8-4 5 0 9 2 11 4 4 2 6 4 8 7s3 6 4 10c1 3 1 6 1 8 0 3-1 7-4 11-2 4-5 9-9 14-4 4-8 9-13 14s-10 9-15 12c-5 4-10 7-14 10-4 2-8 3-11 3 0 9 1 18 3 25 2 8 4 16 6 22 3 6 6 10 9 14 2 4 4 5 6 5 1 0 3-1 5-4 3-2 5-7 8-11 4-4 7-10 10-16l12-18c8-15 17-31 28-50zm-109 32c4-2 8-4 12-8 5-4 10-8 15-13 4-5 8-11 13-17 4-5 8-11 10-16 4-5 6-10 8-14 3-4 3-7 3-8v-2c-3 0-5 2-9 7-5 4-10 10-15 17-6 8-12 16-18 25-7 10-14 19-20 29h1zM947 93c2 0 5 1 8 3 2 2 5 4 8 8 2 3 3 6 4 9 1 4 1 7 0 10-2 4-4 9-6 14s-4 9-6 13-4 7-6 9c-2 3-3 4-5 4s-4 0-6-2c-3-1-5-3-7-6s-4-7-5-12c-2-5-3-11-3-18s1-13 3-17 4-8 7-10c2-2 5-3 7-4 3 0 5-1 7-1zm-58 245c1 0 3-1 5-5 3-2 6-6 9-11 3-4 6-10 10-16s7-12 11-18c8-15 18-32 28-51 1 1 2 4 2 6 1 1 1 4 0 6 0 3-1 6-3 10-2 6-6 11-9 18-4 7-7 14-11 21s-9 14-13 22c-5 7-9 13-13 19-5 6-9 10-12 14-4 3-7 5-10 5-2 0-5-1-8-2-4-2-7-5-10-7-4-3-6-6-9-10-2-4-4-8-4-13 0-4 1-8 4-14 2-7 4-14 7-22s6-16 10-25 7-18 11-27c2-8 5-16 7-23 2-8 3-14 3-18 0-5 0-7-2-9-1-1-2-2-4-2 0 0-1 0-2 1 0 0-1 0-1-1 1 0 1-1 1-2s1-2 2-2c1-1 2-2 4-2 1-1 3-1 5-1 3 0 8 1 12 3s8 4 11 8c4 2 7 6 10 9 2 4 4 6 4 8s-1 5-2 10c-2 4-4 9-6 14-2 6-5 12-7 19l-9 21-9 21c-3 7-5 13-7 19s-4 11-6 15c-1 5-2 7-2 9s1 3 2 3h1z" fill="url(#a)"/><path d="M990 256v12c0 2 0 4 1 6 0 2 1 5 1 8 6-4 12-7 17-11 6-4 11-9 15-13 4-5 8-9 13-13 3-5 6-10 8-15 1 1 1 2 2 2 0 1 0 2 1 3v4c0 2-1 5-2 9-1 3-4 8-8 13s-10 11-16 16c-7 6-17 12-27 18 0 4 1 8 1 12 1 4 1 7 1 11 0 8-1 15-2 20-2 5-5 10-7 13-2 4-5 7-8 8-4 1-7 3-10 3-3-1-7-2-10-3-3-2-6-3-9-6-4-2-7-4-9-7-3-2-5-5-6-7-4-4-5-8-5-12 0-2 1-5 3-7 2-3 4-5 7-8 3-2 6-5 10-7 3-3 6-5 9-7l1-1c-1-6-2-12-4-19 0-6-2-13-3-20-1-6-1-12-2-17-1-6-1-11-1-13 0-6 0-11 2-15 0-4 2-8 3-11s3-6 5-8c1-2 2-4 3-4l3-3c2-1 4-3 7-4s6-2 10-3c4 0 9-1 15-1s11 1 14 1c5 2 7 3 9 4 2 2 4 3 4 4 2 2 2 2 2 3v2c0 2-1 4-2 4l-2-2c0-1 0-1-2-1s-4 1-6 3c-3 2-5 5-7 8-3 3-5 7-8 11-2 4-4 9-6 13-1 5-2 9-4 14-1 5-1 9-1 13zm-25 88l2-2v-11c0-3-1-5-2-8v-6c-1-2-2-3-2-5-2 2-4 4-6 5s-4 3-5 4c-2 1-3 3-4 3-2 2-2 3-2 4s1 3 2 5c1 1 3 3 5 4 2 2 4 4 6 5s4 2 6 2zm81-5c1 0 3-2 5-4 2-4 5-7 9-12 2-5 6-10 10-16 3-6 7-12 10-19 9-14 19-31 29-50 0 0 1 1 1 2s0 1 1 3v3c0 2 0 4-1 6 0 2-1 5-2 8-3 5-6 11-9 18-4 6-7 13-11 21-4 7-9 14-14 21-4 8-8 14-12 19-5 6-9 11-13 15-3 3-6 5-9 5-2 0-5-1-8-3-4-1-7-4-10-7-4-2-6-6-9-10s-4-8-4-13c0-2 1-6 3-12s4-13 8-22c3-9 6-19 10-30s9-22 14-34c4-12 9-24 13-36 5-12 10-25 14-36h-16c-17 0-31 1-42 1-11 1-20 2-27 4-6 2-12 4-16 6s-8 5-11 9h-2c-1 0-2 0-2-2 2-8 4-15 9-20 4-6 10-10 16-14s13-6 21-8 17-4 25-5c9-1 19-1 28-2h29c4-12 7-23 10-31 2-10 4-17 4-21s-1-6-2-8c-2-1-3-2-4-2h-1l-1 1-1-1s1-1 1-3l2-2c1-1 2-2 4-2 1 0 3-1 5-1 4 0 8 1 12 3s8 5 11 9c4 2 8 6 10 9s4 6 4 8c0 3-2 8-4 15-2 8-5 16-9 26h49c12 0 21-1 29-2 7 0 13-1 18-2s8-2 11-3c2-1 4-2 5-3 1-2 1-3 2-4 1-2 2-3 2-4 0-3 2-4 3-5 0-1 1-1 1-1 2 0 2 1 2 2v1c0 5-2 9-3 13-1 5-3 9-5 13s-5 8-7 10c-3 4-7 6-12 9-4 2-10 4-16 5s-14 2-22 2h-69c-4 13-10 26-15 39-6 14-11 27-17 41l-15 39c-5 12-10 23-13 33-2 4-3 8-4 12-1 3-2 6-3 8v5c-1 2-1 2-1 3 0 2 1 3 2 3zm148-115c0-2 0-4-2-6-1-1-2-3-3-4-2-1-5-1-8-1s-6 1-10 4c-3 3-7 7-10 12s-7 11-11 17-7 13-10 20l-9 18c-2 7-5 13-7 17-2 5-2 9-3 13 0 2 0 4 1 4s2-2 5-6c3-5 6-10 10-16 4-7 8-14 13-21 4-7 8-14 12-20 4-7 9-12 12-17 3-4 5-6 7-6 3 0 6 1 10 2 3 2 7 4 10 7 3 2 6 5 9 8 2 3 3 6 3 10 0 0-1 2-1 5-2 3-2 6-4 10s-3 8-5 13c-2 4-4 8-5 13-2 5-4 10-6 14-1 4-3 8-3 12-2 3-2 6-2 8s1 3 2 3c0 0 2-1 5-4 2-3 4-7 7-11 3-5 6-10 9-17 4-6 8-12 11-18 8-15 18-31 28-50 1 1 1 3 2 5v7c-1 2-1 6-3 10-3 5-6 11-9 17-4 7-7 14-11 21-3 8-7 15-11 22-5 7-8 14-12 19-3 6-7 10-9 14-4 4-6 5-7 5-4 0-7-1-11-3s-7-5-12-8c-3-3-6-7-9-11-3-5-4-10-4-15 0-1 1-2 1-5 1-2 2-5 2-8 2-2 2-6 4-9 1-3 2-7 4-10 2-8 6-17 10-26-3 5-7 10-10 15-2 4-6 10-9 15-3 6-7 12-10 18-5 7-8 14-10 19-2 6-4 11-6 15-1 4-2 7-3 10-1 2-2 3-4 3s-5-1-9-3c-3-2-7-5-11-9s-7-8-9-14c-3-6-4-12-4-19 0-8 1-16 3-25s5-19 8-29l12-30c5-9 10-17 16-25 5-7 10-13 16-18s11-7 16-7c6 0 12 2 17 4 5 4 9 7 13 11s6 8 8 12 3 7 3 8c0 2 0 4-1 5 0 2-1 2-2 3s-2 2-4 3zm227-46c3 0 5 1 8 4 3 2 7 6 9 12 4 5 7 11 9 18 2 8 3 16 3 25 0 7-2 14-5 22-3 7-8 15-13 22-6 8-12 14-19 21-7 8-14 14-21 20-8 6-15 12-23 17-7 4-14 8-20 12-5 2-9 4-13 5-4 2-7 2-9 2s-5-1-9-2c-3-2-7-5-9-7-4-3-7-6-9-10-3-4-4-8-4-13 0-4 1-8 3-14 2-7 4-13 8-21 2-8 6-16 9-25s7-17 9-25c4-9 7-16 9-24 2-7 3-13 4-18 0-1-1-2-2-2h-1c-1 2-4 5-7 9s-7 9-11 14c-4 6-8 12-13 18-4 7-9 15-14 21-4 8-9 15-13 23-5 7-9 14-12 21-4 7-7 13-10 19-3 5-5 10-6 14-1 3-1 5-1 6v1c0 3 1 6 2 8 1 1 1 3 1 3 0 2 0 2-1 3 0 1-1 1-2 1-2 0-5-1-8-2-5-2-7-5-11-7-3-3-6-6-8-10-3-4-4-8-4-13 0-4 1-8 3-15 2-6 5-13 7-21 4-8 7-16 10-24 4-9 7-18 11-27 2-8 5-16 7-24s3-14 3-19c0-4 0-7-2-8-1-2-2-3-4-3 0 0-1 1-2 1v-3c0-1 1-2 2-3 1 0 2-1 4-2h6c3 0 7 1 11 3s8 5 12 7c4 4 7 7 9 10 3 3 4 7 4 9 0 1 0 4-1 6-1 3-2 7-3 11-2 3-3 8-5 12l-6 15c2-3 4-7 7-12s6-9 10-15c4-5 8-11 11-17l12-15c4-4 7-8 11-10 2-3 5-4 8-4 2 0 6 1 11 3 4 2 8 5 12 7 3 4 6 6 9 10 3 3 4 7 4 9s-1 6-4 13c-2 7-5 14-8 23-4 9-7 18-11 28-4 9-9 19-12 27-3 9-7 17-9 23-2 7-3 12-3 14s1 2 2 2c3 0 7-1 11-5 5-4 11-8 17-15s14-16 21-26c6-10 13-21 19-32 5-11 10-23 13-35 4-11 6-23 6-34 0-2 0-4-1-4-1-2-1-2-2-3s-2-2-2-3l1-1c1 0 2-1 2-1h3z" fill="url(#b)"/></g></svg>