<svg xmlns="http://www.w3.org/2000/svg" width="30.72" height="30.72" viewBox="0 0 320 320" shape-rendering="geometricPrecision" text-rendering="geometricPrecision" image-rendering="optimizeQuality" fill-rule="evenodd" clip-rule="evenodd"><path d="M255 186c-9 0-16-7-16-16s7-16 16-16c8 0 15 7 15 16s-7 16-15 16zM88 122l7-29c2-7 9-13 17-13h111c8 0 15 6 17 13l7 29H88zm132 54c0 6-5 10-10 10h-85c-5 0-10-4-10-10v-12c0-6 5-10 10-10h85c5 0 10 4 10 10v12zM82 186c-9 0-16-7-16-16s7-16 16-16 16 7 16 16-7 16-16 16zm212-93h-16c-5 0-10 5-10 10l1 5-6 6-6-25c-4-16-18-27-34-27h-14V42c0-6-4-13-11-13h-61c-7 0-11 7-11 13v20h-14c-16 0-30 11-34 27l-6 25-6-6 1-5c0-5-5-10-10-10H41c-6 0-10 5-10 10v4c0 6 4 10 10 10h17l6 6c-11 3-20 13-20 26v43c0 13 10 24 23 26v27c0 6 4 11 10 11h28c5 0 10-5 10-11v-27h105v27c0 6 4 11 10 11h28c6 0 10-5 10-11v-27c13-2 23-13 23-26v-43c0-13-9-23-20-26l6-6h17c6 0 10-4 10-10v-4c0-5-4-10-10-10z" fill="#535156" fill-rule="nonzero"/></svg>